This is just the interview.																							                                                   Enjoy and please share.									 																			************************************************************************************************************************************************************************************************************																																																													             Regis_Orlando_Bloom_720p_20110427_TTL.avi
Format                           : AVI
Format/Info                      : Audio Video Interleave
File size                        : 213 MiB
Duration                         : 12mn 56s
Overall bit rate                 : 2 297 Kbps
Movie name                       : Regis_Orlando Bloom_720p_20110427_TTL.mpg
Director                         : created.with.SUPER(C).v2010.bld.37
Writing application              : SUPER(C)   

Video
ID                               : 0
Format                           : MPEG-4 Visual
Format profile                   : Simple@L3
Format settings, BVOP            : No
Format settings, QPel            : No
Format settings, GMC             : No warppoints
Format settings, Matrix          : Default (H.263)
Codec ID                         : XVID
Codec ID/Hint                    : XviD
Duration                         : 6mn 28s
Bit rate                         : 4 470 Kbps
Width                            : 1 280 pixels
Height                           : 720 pixels
Display aspect ratio             : 16:9
Frame rate                       : 29.970 fps
Resolution                       : 8 bits
Colorimetry                      : 4:2:0
Scan type                        : Progressive
Bits/(Pixel*Frame)               : 0.162
Stream size                      : 207 MiB (97%)
Writing library                  : XviD 1.1.2 (UTC 2006-11-01)

Audio
ID                               : 1
Format                           : MPEG Audio
Format version                   : Version 2
Format profile                   : Layer 3
Mode                             : Joint stereo
Format_Settings_ModeExtension    : MS Stereo
Codec ID                         : 55
Codec ID/Hint                    : MP3
Duration                         : 12mn 56s
Bit rate mode                    : Constant
Bit rate                         : 112 Kbps
Channel(s)                       : 2 channels
Sampling rate                    : 22.05 KHz
Stream size                      : 5.19 MiB (2%)
Alignment                        : Aligned on interleaves
Interleave, duration             : 26 ms (0.78 video frame)
Interleave, preload duration     : 26 ms
Writing library                  : LAME3.98







